Coordinates
version=1
nRows=17
nColumns=24
inDegrees=yes

Units are S.I. units (second, meters, Newtons, ...)
Angles are in degrees.

endheader
time	pelvis_tilt	pelvis_list	pelvis_rotation	pelvis_tx	pelvis_ty	pelvis_tz	hip_flexion_r	hip_adduction_r	hip_rotation_r	knee_angle_r	ankle_angle_r	subtalar_angle_r	mtp_angle_r	hip_flexion_l	hip_adduction_l	hip_rotation_l	knee_angle_l	ankle_angle_l	subtalar_angle_l	mtp_angle_l	lumbar_extension	lumbar_bending	lumbar_rotation
      0.93700000	      4.66787875	     -3.11510171	     -2.18475673	     -0.37484356	      1.08233352	      0.30588050	     -0.42794408	      8.38525721	     -5.44806614	     -8.63718693	      0.45168301	     -3.24604828	      7.82235436	      7.83845538	     -4.49545300	     -2.24448619	    -57.89386510	      1.27092162	     -7.69995840	     16.23348373	     -0.88822171	      8.33787969	      1.95392782
      0.94116667	      4.69581555	     -3.08500255	     -2.34497454	     -0.36995785	      1.08281547	      0.30620506	     -0.84239831	      8.35696248	     -5.29284612	     -8.46902391	      0.55322989	     -3.33467944	      7.80607995	      8.27860097	     -4.38790188	     -2.09823549	    -57.40556283	      1.73539899	     -8.37531891	     16.01093375	     -0.97236529	      8.33646220	      2.06485167
      0.94533333	      4.71390572	     -3.09037177	     -2.39341543	     -0.36503378	      1.08323400	      0.30662206	     -1.28889950	      8.39730681	     -5.06305517	     -8.20002642	      0.61243447	     -3.33132004	      7.79721534	      8.74567743	     -4.33788870	     -1.84808305	    -56.89656140	      1.98685007	     -8.80621604	     15.88878209	     -0.97514311	      8.27475959	      2.16307779
      0.94950000	      4.74211216	     -3.07126015	     -2.50762791	     -0.36016603	      1.08366341	      0.30698519	     -1.72381118	      8.39266407	     -4.85495682	     -7.98074662	      0.69768084	     -3.41344291	      7.78157085	      9.17365717	     -4.24946272	     -1.65987820	    -56.32630744	      2.32481903	     -9.50116062	     15.71621531	     -1.01979325	      8.23404601	      2.29875977
      0.95366667	      4.74383173	     -3.03095166	     -2.70165907	     -0.35535064	      1.08404942	      0.30733818	     -2.10400849	      8.35052044	     -4.66612346	     -7.81580005	      0.76169402	     -3.58271130	      7.74603981	      9.60238170	     -4.13715807	     -1.56078087	    -55.68278091	      2.43246470	    -10.40638164	     15.37256008	     -1.13947306	      8.23812072	      2.54145221
      0.95783333	      4.75306012	     -3.03466304	     -2.73236701	     -0.35049903	      1.08437856	      0.30770739	     -2.53927352	      8.38859953	     -4.45765318	     -7.53328719	      0.80260492	     -3.57708621	      7.73328098	     10.04935261	     -4.08031105	     -1.28651479	    -55.04239283	      2.57468501	    -10.72805770	     15.24719395	     -1.13202914	      8.19107225	      2.64379247
      0.96200000	      4.77111484	     -2.99957821	     -2.91295410	     -0.34573464	      1.08473001	      0.30803220	     -2.94191630	      8.35078893	     -4.25404307	     -7.35163432	      0.87330526	     -3.78757953	      7.68634130	     10.43918740	     -3.97341331	     -1.17638697	    -54.31840186	      2.71617220	    -11.65535876	     14.86443789	     -1.26652258	      8.18281634	      2.88658620
      0.96616667	      4.76433310	     -2.99874759	     -2.94197481	     -0.34085059	      1.08499536	      0.30836384	     -3.36601875	      8.38100758	     -4.05383622	     -7.06432523	      0.90961369	     -3.79636267	      7.66851917	     10.87039945	     -3.90927809	     -0.90188828	    -53.58996921	      2.81692155	    -11.96443805	     14.71781579	     -1.22629015	      8.13863691	      2.99140434
      0.97033333	      4.74218920	     -2.98344006	     -3.09583535	     -0.33615364	      1.08521897	      0.30870844	     -3.73578992	      8.37312416	     -3.78051654	     -6.84611445	      0.91506096	     -4.04677414	      7.57120250	     11.29523094	     -3.83422769	     -0.76818832	    -52.79039936	      2.61952417	    -12.95736377	     14.01428145	     -1.36774325	      8.16528373	      3.33539031
      0.97450000	      4.73408023	     -2.96721551	     -3.15002028	     -0.33126611	      1.08544108	      0.30896069	     -4.14529877	      8.37288290	     -3.66889860	     -6.58485334	      0.97810150	     -4.06706269	      7.55338618	     11.68799341	     -3.74621083	     -0.52132401	    -51.96620316	      2.84548289	    -13.18436202	     13.88902507	     -1.29289047	      8.11869861	      3.39671595
      0.97866667	      4.70966163	     -2.95970990	     -3.21413423	     -0.32646058	      1.08559682	      0.30922497	     -4.53350717	      8.38175069	     -3.50658895	     -6.32543106	      1.04472206	     -4.13895870	      7.52799453	     12.09273199	     -3.67198328	     -0.28934403	    -51.11214375	      3.00585162	    -13.60650784	     13.71926107	     -1.27078594	      8.07707595	      3.47691744
      0.98283333	      4.66238408	     -2.94293522	     -3.36822326	     -0.32170885	      1.08571898	      0.30949815	     -4.87496415	      8.36370299	     -3.33404881	     -6.11453027	      1.07640138	     -4.39713880	      7.45645528	     12.49160607	     -3.59669458	     -0.16371142	    -50.18564625	      2.88813307	    -14.46689824	     13.27290969	     -1.33464785	      8.06808856	      3.65142059
      0.98700000	      4.62800612	     -2.96385257	     -3.38136564	     -0.31693693	      1.08577666	      0.30970845	     -5.26242788	      8.41032813	     -3.18237608	     -5.82401147	      1.09758437	     -4.39377672	      7.43535742	     12.89480810	     -3.55291707	      0.11857601	    -49.26851782	      2.91519013	    -14.63786389	     13.13879851	     -1.29551681	      8.08814515	      3.70887894
      0.99116667	      4.59853766	     -2.96779115	     -3.42802560	     -0.31210842	      1.08584633	      0.30990469	     -5.65742132	      8.42766558	     -3.04736867	     -5.53804255	      1.13587268	     -4.48486788	      7.40375834	     13.25925553	     -3.49014321	      0.35734264	    -48.28770877	      2.93721958	    -15.03346169	     12.95080889	     -1.23732377	      8.07550620	      3.79489033
      0.99533333	      4.55712090	     -2.97842199	     -3.48187295	     -0.30729708	      1.08585753	      0.31010042	     -6.03871215	      8.45086726	     -2.89801411	     -5.25350573	      1.15705659	     -4.60686395	      7.36350662	     13.62395228	     -3.43925904	      0.57832803	    -47.27145752	      2.85574746	    -15.50867352	     12.71755877	     -1.21172448	      8.08136514	      3.89102517
      0.99950000	      4.50592498	     -2.99046448	     -3.60600164	     -0.30261051	      1.08582991	      0.31028624	     -6.37820669	      8.45763487	     -2.76814156	     -5.02813505	      1.12164759	     -4.88606179	      7.26330382	     13.97986532	     -3.39658430	      0.73050641	    -46.19960156	      2.51018142	    -16.32446300	     12.15923316	     -1.31663294	      8.09847585	      4.06493989
      1.00366667	      4.44701157	     -3.03145872	     -3.61744220	     -0.29783394	      1.08572733	      0.31041857	     -6.74382157	      8.51735158	     -2.65109990	     -4.73205490	      1.14264425	     -4.87150783	      7.23701155	     14.34846963	     -3.37652884	      1.00077123	    -45.14128523	      2.54117068	    -16.42223572	     12.00929394	     -1.25814486	      8.16107879	      4.10435579
